<?xml version="1.0" encoding="UTF-8"?>
<svg id="Ebene_1" xmlns="http://www.w3.org/2000/svg" version="1.1" viewBox="0 0 547.65 214.96">
  <!-- Generator: Adobe Illustrator 29.4.0, SVG Export Plug-In . SVG Version: 2.1.0 Build 152)  -->
  <defs>
    <style>
      .st0 {
        fill: #cea386;
      }

      .st1 {
        fill: #54494b;
      }

      .st2 {
        fill: #dd7279;
      }
    </style>
  </defs>
  <g>
    <path class="st1" d="M3.23,195.94c4.27,2.18,10.82,4.37,17.58,4.37,7.28,0,11.13-3.02,11.13-7.59s-3.33-6.87-11.76-9.88c-11.65-4.06-19.25-10.51-19.25-20.7,0-11.96,9.99-21.12,26.53-21.12,7.91,0,13.73,1.67,17.89,3.54l-3.54,12.8c-2.81-1.35-7.8-3.33-14.67-3.33s-10.2,3.12-10.2,6.76c0,4.47,3.95,6.45,13,9.88,12.38,4.58,18.21,11.03,18.21,20.91,0,11.76-9.05,21.74-28.3,21.74-8.01,0-15.92-2.08-19.87-4.27l3.23-13.11Z"/>
    <path class="st1" d="M68.76,191.88c.52,6.55,6.97,9.68,14.36,9.68,5.41,0,9.78-.73,14.04-2.08l2.08,10.72c-5.2,2.08-11.55,3.12-18.41,3.12-17.27,0-27.15-9.99-27.15-25.91,0-12.9,8.01-27.15,25.7-27.15,16.44,0,22.68,12.8,22.68,25.38,0,2.71-.31,5.1-.52,6.24h-32.77ZM87.38,181.06c0-3.85-1.66-10.3-8.95-10.3-6.66,0-9.36,6.03-9.78,10.3h18.73Z"/>
    <path class="st1" d="M147.2,211.03c-2.81,1.25-8.11,2.29-14.15,2.29-16.44,0-26.94-9.99-26.94-26.01,0-14.88,10.2-27.05,29.13-27.05,4.16,0,8.74.73,12.07,1.98l-2.5,11.76c-1.87-.83-4.68-1.56-8.84-1.56-8.32,0-13.73,5.93-13.63,14.25,0,9.36,6.24,14.25,13.94,14.25,3.75,0,6.66-.62,9.05-1.56l1.87,11.65Z"/>
    <path class="st1" d="M202.55,186.27c0,18.62-13.21,27.15-26.84,27.15-14.88,0-26.32-9.78-26.32-26.22s10.82-26.94,27.15-26.94,26.01,10.71,26.01,26.01ZM165.72,186.79c0,8.74,3.64,15.29,10.4,15.29,6.14,0,10.09-6.14,10.09-15.29,0-7.59-2.91-15.29-10.09-15.29-7.59,0-10.4,7.8-10.4,15.29Z"/>
    <path class="st1" d="M208.83,177.63c0-6.35-.21-11.76-.42-16.23h13.73l.73,6.97h.31c2.08-3.22,7.28-8.11,15.71-8.11,10.4,0,18.21,6.87,18.21,21.85v30.17h-15.81v-28.19c0-6.55-2.29-11.03-8.01-11.03-4.37,0-6.97,3.02-8.01,5.93-.42.94-.62,2.5-.62,3.95v29.34h-15.81v-34.64Z"/>
    <path class="st1" d="M314.6,138.41v58.68c0,5.72.21,11.76.42,15.19h-14.04l-.73-7.49h-.21c-3.23,5.72-9.36,8.63-15.92,8.63-12.07,0-21.74-10.3-21.74-26.11-.1-17.17,10.61-27.05,22.78-27.05,6.24,0,11.13,2.18,13.42,5.72h.21v-27.57h15.81ZM300.79,182.94c0-.83-.1-1.98-.21-2.81-.94-4.27-4.37-7.8-9.26-7.8-7.18,0-10.92,6.45-10.92,14.46,0,8.63,4.27,14.04,10.82,14.04,4.58,0,8.22-3.12,9.15-7.59.31-1.14.42-2.29.42-3.64v-6.66Z"/>
  </g>
  <g>
    <path class="st2" d="M400.94,164.9c-.31,1.39-1.92,7.85-2.08,9.16-.69,3.16-5.47,19.02-7.08,22.33-.15,1.77-1.46,3.39-1.77,4.54v.46c-.23.54-.54.92-1,2,.23.46-.23.54-.31.92v-.23c-.31.15-.23.54-.62.62,0,.38,0,.31.08.77-.54.15-.39,1.16-1,1.23.08.15-.08.31,0,.46-.38.23-.38.31-.85.39.46.31-.15.46-.15.77-.23.23-.15-.15-.38.08-.15.15.08.31.08.62-.38-.38-.38.38-.54.46-.08,0-.08-.15-.08-.23-.23.08-.31.62-.54.23-.08-.08-.15.38,0,.38-.31.62-1.08.46-1.08,1.31-.23,0-.38.23-.69.38-1.62,1.85-3,2.31-4.7,2.31-1.39,0-3.31-.38-4.7-1.31-.15.08.08.23.08.38-.08.08-.85-.46-1-.46.08-.31.62.15.69.08-.39-.39-1.08-.69-1.85-1.08-.23.15.46.46.38.54-.31,0-1.31-.62-1.31-.77.15-.23.69.38.69.15-.39-.39-1.46-.77-1.93-1.31,0-.08-.08.23-.31.08-.39-1.16-2.46-1.54-3-3-1.08.23-1.85-1.39-2.7-1.62-.15.08.62.46.15.62-.08-.23-.92-.69-1-.92.08-.23.62.38.62.23-.77-1.15-2.23-1.85-2.93-2.54-.08.62.92.69,1.31,1.46-.08.31-3.23-2.08-2.85-2.54.31.08.15.38.38.38.08,0,.23-.23.08-.31-.39-.23-.39-.69-.92-.77-.15,0,.23.31.15.46-.38,0-.62-.62-1-.77-.31.46-1,1.92-1.31,2-.15.15.23.23.08.31-.23.31-.46.62-.69.62,0,.15.08.46-.15.46-.08,0-.08-.31-.15-.23-.15.15-.08.85-.69.85.08.15.23.08.23.31-.31,0-.46.08-.62.23,0,.08.15.08.15.08,0,.23-.39.08-.39.31.31.08-.15.54-.54.54-.08.23.23.08.08.23-.15.08-.23.15-.38.08-.23.31-.62.39-.77.92-1.08.62-2.23,1.92-3,2.31,0,.31-.15.39-.15.62,0,.15-.23,0-.31.08-1.23,1.31-3.31,1.46-5.08,2.16-.15.08.15-.23,0-.23-2.23,2.62-4.85.46-6.78,1.92-.23,0-.31-.31-.62-.23-.15.08,0,.23,0,.31s-.23.23-.39.15c-.15-.15,0-.15,0-.31-.69-.15-1.54-.15-2.08-.08-.85.23-3.93-1.62-4.16-2.23-.46-1.23-1.23-1.69-2.08-2.7,0-.08.08-.08.23-.08-.69-.54-.62-1.31-1.23-1.69-.15-.08.39-.15.31-.39-.54-1.23-.77-2.62-.77-4.08,0-3.54,1.39-7.39,3.08-9.86.15-.31.23-.08.46-.23,0-.23-.31-.31-.08-.46.15-.08.31.15.38,0,.62-1.54,2-2.77,3.62-3.47.15.15-.15.39-.08.54,1.54-1.62,4.7-2.31,7.7-2.08.31.46,1.31.46,1.69.54.08-.62.23-.92.23-1.54-.38-.31.38-.62.31-.92-.08-.31-.23-.69.08-.77-.15-.38,0-.69.23-.92-.08-.31-.23,0-.38-.15-.08-.15.08-.54.23-.54,0-.69-.23-.62.08-1.08.15-.15,0-.23-.23-.31-.08-.31-.15-1.08.08-1.08.31,0,.31-.23.15-.23-.38.08-.08-.15-.08-.46s-.15-.08-.23-.08c-.15,0-.08-.85,0-.92.15,0,0,.46.15.54.31-.08,0-.69.15-1-.15-.15-.15.23-.31.15-.15-.54.54-.77-.08-.92,0-.31.08-.38.31-.38-.15-.62.15-1.54-.23-1.62.46-1.62,0-3.54,0-5.78-.08-.31,0-.92.15-1.23.08-.31.39-.62.54-.38.15.15-.31.62,0,.69.08.08-.23.46,0,.46.46-.54.15-2.08.08-3.08-.31,0-.38,1.23-.54,1.39-.46,0-.23-3.39,0-3.62.38-.15.23-.77.15-1-.31-.15-.15-1.16-.08-1.93.31,0,.15.92.23,1.54.54,0-.08-1.31.15-1.54-.08-.08.15-.62,0-.69-.23-.08-.08.23-.31.23-.38-.08.46-4.24.23-5.24.08-.23.85-1.31.77-1.54-.31-.31-.62.15-.77.54-.15-.08-.15-.46-.15-.62-10.01,1.39-17.94-4.93-17.94-16.4,0-4.24,1.93-8.39,5.39-11.09-.69,2.23-1.85,4.39-2.39,7.16-.15,2.62-1,6.62.46,9.09-.31.15,0,.31-.23.54.08.08.15-.15.23.08-.23.38.08.62,0,.92.38-.23-.15.31.31.08.15.62.31,1.62.77,1.77,3.62,5.47,9.55,6.08,13.4,5.31.38-1.16,1.31-.85,1.31-2.77-.15,0-.54.54-.54.08-.31.08-.08.62.23.38,0,.39-.38,1.16-.77.92-.08-.54.23-1.46.39-1.93,0-.15-.31.23-.39,0,.15-.15-.08-.77.15-.77s.54,1,.85.92c.15,0,.31-.62.23-.69-.08-.15-.15.31-.31.31-.15-.15,0-.31-.15-.62.92-.31.85-2.46.77-2.85-.08-.15-.31,0-.38.15-.08.15.23.23.15.46-.08.08-.31-.08-.31.08.31.38.15,2-.38,1.92.08-.23.08-.46.31-.46,0-.23-.08-.31-.31-.31-.15.39-.08.92-.62.69.08-1,.23-2,.62-2.08.31-.08-.46-.46-.31-.54.15-.15.54-.23.69-.15.15-.46-.85,0-.46-.69-.08-.23-.23.08-.38-.08.08-.39.62-.39.31-.85.23-.08.23-.85.39-.85s-.08.92.23.92c.39-1,.15-1.46.54-2.54-.62-.08-.31,1.16-.69,1.16-.15-.08,0-.92.23-1.62-.31-.08.15-.46-.08-.77.54.15.23-1.31.46-1.31.31,0,.23-.31.46-.31-.15-.62.23-.69.23-1.23-.08-.08-.15.15-.23.08-.08-.15.31-1,.31-1.16.08-.31.08.46.23.46.08-.08-.08-.54.15-.54-.08-.54.15-.69.15-.92,0-.15-.46.23-.46,0,2.77-9.63,7.78-16.71,15.33-22.1,2.54,1.08,6.24.92,9.24,1.62.38.39.62.46,1.23.62,3.85,2.7,5.54,9.32,4.08,14.63-.15-.31-.31-.15-.38,0,0,.15.31.38.23.69-.62,3-1.69,4.85-2.93,7.01h-.31c.23.46-.77,1.08-.54,1.39-.08.15-.15,0-.23,0-.23.38-.38.77-.77.85,0,.15.08.15.08.31-.77.31-.77,1.46-1.46,1.77,0,0,0-.15-.08-.15-.54,1.16-2.39,2.46-2.85,3.39-.38-.08-.54.46-.77.69-.15-.08,0-.31,0-.38-.31.23-.46.77-.85,1.31-.15-.08-.08-.15-.23-.31-.15.31-.23.39-.31.69,0,0-.23-.08-.23-.15-.23.08-.15.39-.31.54-.69-.15-1.54,1.31-2,1.62-.08,0-.08-.08-.23-.15-.38.38-.62.62-.77,1.08-.23.08-.15-.15-.39-.15-.08.15-.15.31-.15.54q-.15.15-.31,0v.38c-.08,3.23-.54,9.01-.31,13.32,0,8.24.08,17.02-.31,25.11,0,.15-.15.08-.23.08-.08,1.31,0,3.77-.62,5.31.08.31.38.31.46.54-.23.46.08.62.08,1.16.15.31.54-.23.69.08.08.38.85,1,.85.77.23,0,.31.31.23.46.15.15.62.15.46.62,1.31.77,2.93,2.62,2.85,3.23,2.08.85,3.46,2.62,5,3.93.15.08-.23.23-.08.31.46,0,.92.31.92.54-.23.23.23.31.46.46.69.54,1.77,1.08,2.23,1.54.08-.31-.08-.46.08-.54.54.31.62.69,1.16,1,.23.08.08-.23.15-.46.15.08.39.54.31.62.15,0,.08.23.38.15-.23.54.46.31.31.77.38.08.62-.08.92.08,0,.46.46.31.69.46.15.08,0-.08,0-.23.46,0,1.31.85,1.77.77.23.46-.77.77-1.77.15-.23.31.38.92,1.46.92.69,0,1.31.08,1.23-.08,0-.23-.62-.23-.46-.39.31-.31.38-.85,1.23-1.23.23.31-.08.31-.15.46.31.38.62-.46.77-.23.39.31-.31.46-.31.62.46.15.38-.15.77-.38.15-.08-.23-.38.15-.46,0-.23-.46-.08-.54-.23-.08-.23.54-.54.54-.69.54-.08,0,.31,0,.39.46.15.77-1.16,1-1.39.15-.15.39-.08.46-.38.39,0-.08.54.23.23.31.31.46.31.54.15.23-.31-.31-.62.15-.92-.62-.31-.23-.69-.08-.85.38-.15-.23.31.23.39,1.46-2.08,2.08-3.23,3.31-5.7-.08-.15,0-.15-.15-.31.69-.31.54-1.77,1.23-2v-.46c.23,0,.23-.62.39-.92.54-.23.54-.77.46-1,.38,0,.15-.77.23-1.08.31.31.46-1.08.54-1.62.23.08.08.46.31.46-.31-.62-.15-.77.08-1.16,0-.08.08-.08.08-.15h-.08c0-.23.23-.69.54-.77.08-1.16.46-1.62.54-2.62,1.08-3.23,4.85-14.86,5.01-15.63.46-.62.15-1.69.69-2.31.15-.23-.15-.23,0-.46.15.08.08.15.31.08-.62-.54.85-3.93.69-4.7,0-.08.15-.08.31,0-.38-.85.23-2.23.54-2.93.85-.38,1.54,1.54,1.39,1.92,0,0-.15-.15-.23-.31-.23.15.23.54-.15.46.08.08.23-.08.39-.08l.15.31ZM343.26,193.09c-8.01-3.47-14.4,1.93-14.4,9.4,0,1.69.38,3.47,1.16,5.16,1,1.39,2.93,3.16,5.39,3,0-.46.54-.15.77-.23.15-.54.77-.31,1.15-.54.15-.08-.23-.23,0-.38,1.39-.54,2.08-1.92,2.54-3.31.23,0,.08.39.31.39,0-.23.15-.39.23-.23.38-.62.15-1.23.46-1.62.15,0,0,.62.23.38.62-1.08,1.08-2.23,1.23-3.46-.23-.15-.31.15-.38,0,.08-.31-.15-.69.23-1.23,0-.15-.39-.23-.23-.46.77-.85-.08-2,.46-2.7.23.08.08.69.54.62-.08-.62.15-1.46-.54-1.85-.15-1.08.15-2.23.77-1.62.08-.62,0-.69.08-1.31ZM351.27,152.73c-.23,0,.15-.46-.23-.38,0,.23-.23.38-.31.38,0,.62-.15.92.15,1.31-.23.39-.39-.23-.54-.08-.23.31.15.46-.23.62-.23,0,.23-1.46,0-1.54-.15.23-.15,1.08-.31,1.08s0-1.39-.31-1.39c-.23.77.08,1.39-.85,2.7-.08-.15,0-.54-.23-.54-.15.23-.31-.08-.46.15v.23c.15.31.23-.15.31.08.15.31-.23.77-.62.77s-.15-1.46.38-1.93c.08-.46-.08-.69-.08-.77-.46.23-.46-.15-.69.38,0-.15-.46-.15-.46-.23,0-.15.08-.38-.15-.38-.15.23,0,1.16-.31,1.23,0-.15-.08-.54-.15-.77-.15,0-.23.77-.08.92-.23-.15-.31.31-.08.39,0-.15.15.15.23,0,.15-.31.54-.39.77-.54-.46,1.62-1,4.39-.46,4.47.31,0,.46-1.54.31-2,.15-.23.92-.23,1.08-.38.08.23-.15.31-.15.38.23,0,.15,0,.31.08.15-.08.23-.62.38-.54.15,0,.31.38.46.62-.31,0-.31.38-.38.69.31,0,0-.46.31-.39.31.39.23.85-.77.77-.23-.38-.46-.92-.62-.92-.54.08-.08,2.46-.69,3,0,0-.15-.46-.31-.38-.39,1.23.08,2.85-.31,4.24.08.08.23,0,.31.15,0,.15-.15.15-.23.38-.15,0-.31,0-.38.15.23,0,.31.08.38.15-.15,0-.08.23-.15.38.15.08.39,0,.46.15-.15.23-.39.46-.23.69,0-.08.23-.23.31.08-.38.15-.23.85-.15,1-.08,0-.15.08-.15.15h.23c.08-.23,0-.54.23-.54.15,0,.46,1.23.08,1.23-.08,0-.15.15-.15.23.31.08.23.69.46.62.62-1.69-.77-4.31,0-6.16-.46-.08.15-.54-.15-.85-.15.08,0,1.23-.39,1.23-.08-1,.31-1.39,0-2.39,0-.23.62-.08.69-.15-.38-.62.15-1.39,0-2,.31,0,.15-.38.46-.31.31.38-.08.46-.08,1.08.31-.08.31-.39.54-.39,0-.23,0-.54.23-.54v.77c.08.31-.62,1.08-.31,1.16.15-.08.08.62.31.46-.08-.15.15-.69.46-.77.08.31,0,.54-.08.69.15,0,.23,0,.31-.08.15.23,0,.77-.31.92v-.46c-.62.08-.92.54-1.16.92.08,0,.23.08.15.23-.08.15-.23,0-.23.23.38.38-.39.54.08,1,.08-.31.15-.15.31-.31-.38-.15.54-1,.69-1.16.08.31-.31.85-.08,1,.23.08.38-.62.46-.62.15.15.23.77.15,1.16-.08.31-.77-.62-.85.23.46,0,.46.38.69.54-.08.15-.92.77-1.23.54-.15.23.08.62-.08.85,1.16.15.85-.62,1.23-.62.08.31.38,1.31-.08,1.46.62,2-.85,4.85-.62,7.16.15.08.08-.46.31-.38,0,.38,0,1.31-.39,1.39.15.15-.15.62,0,.92.15,0,.23-.31.31-.31.15,0-.15,1.08.15,1.23,0-.69.46-.85.15-1.62.23.08.23-.31.31-.46-.31-.23-.08.23-.31.08-.08-.23,0-.92.08-1,.23,0-.15.69.23.62-.08-.39.31-.23.46-.46-.23-.08-.08-.69.08-.69.08.31.31.92.08,1.16-.08,0-.23-.15-.31-.15-.08.15-.08.69.08.69.08,0,.23-.23.38-.23,0,.31-.31,1.08,0,1.08.39-.62.31-3.23-.15-3.62-.23-.08-.54.54-.77.54-.23-.23,0-.92-.23-1.08,0-.46.69-.15.85,0,.31-.31-.08-.39.08-.54.31-.31-.23-.92,0-1.31.31-.46.62-.85.46-1.46.08-.15.31-.15.31-.39-.15-.15-.15.08-.31.15,0-.23-.08-.62.23-.46.08-.23-.23-.08-.23-.23.23,0,.23-.46.38-.69-.77,0-.62.23-.92.23.15-.46-.31-1.08.15-.92.38-.15.15-1.08.15-1.54,0-.23.62.31.77.31.23-.23-.38-.77-.15-1-.15-.23-.31,0-.46-.08,0-.38-.23-1,.23-1.31-.39,0-.15-1.08-.46-1.23,0,.08,0,.23-.23.23.08-.92,1.23-.77.92-1.16.15-.08.15,0,.31,0,.08-.15-.15-.08-.08-.38.23,0,.54-.31.31-.54-.38-.15-.23.23-.54.31.15-.46-1,.23-.85-.23.08-.23,0-.92.31-1.08.08,0,.85.23.92-.15,0,0-.15-.31-.23-.38-.08-.23-.69-.15-.54-.38.15-.23.69.23.85-.08.23-.46.39-1.85,0-2.08-.23.15,0,.38.08.54-.23-.08-.23.23-.38.08-.46-.31,1.16-2.93.54-2.93ZM360.74,145.88c.54-.46,1.31-.77,1.46-1.23,3.39-2.85,7.24-6.32,9.32-10.47-.15-.23.08-1.31.62-1.08.23.08.15-.23.23-1,0-.38.31-.38.39-.46-.08-.54.23-.54.23-1.23,0-.08.08-.15.15,0-.08-.31.23-.31.08-.69,0-.23.38,0,.38-.31-.08,0-.23,0-.23-.08.38-.08.15-.85.23-1.16.54-1.85.85-3.85.08-5.7-.08-.15.23-.23.23-.46-.54-.15-.23-1.16-.46-1.46-.08-.15-.08.23-.31.15,0-.46.23-.92,0-1.23,0,.23-.23.23-.38.15.31-.77-.54-1.54-1.16-2-.38,1.69-2.31,1.85-3.23,3.23-.08.23.38-.15.62-.08-.15.62-1.16.46-.62,1.16-1.16.38-.92,1.16-1.77,1.77-.08.15.38,0,.38.23-.38.08-.31.77-.62.54-.23.08-.08.31,0,.54-.15.39-.38.23-.62.31-.08.23-.15.54.15.62.08.31-.23.38-.46.38-.31.54-.46.38-.69.77.15.15.31-.15.46,0-.62,5.39-3.54,11.71-4.08,17.71-.54-.23-.54.92-.38,1.08ZM361.97,122.85c.46.23.31-.54.92-.38.15-.15.38-.15.69-.38-.08.85-1.23,3.16-1.39,3.7.38,0,.15.54.46.38-.08-.38,2.39-4.39,1.85-4.62.69-.62,1.69-1.08,1.92-1.85.08-.23-.77-.23-.69-.46.31-.46,1.85-.54,1.54-1.23.31.31.85-.38.54-.38.15-.38.69-.54.69-1.16-.31.31-.23-1.16-.54-.62-.38-.08-.69,1.08-1.08,1-1.08.31-3.23,3.85-4.93,6.01ZM390.77,192.09c-.08-.08,0-.08,0-.15v.15Z"/>
    <path class="st2" d="M404.4,208.1c.08-.31.54-.15.39.08.31.08.62-.54.85-.46.46.39.23,1,1.08.92.54,1.08,2.39,1.92,2.62,1.62,0-.31-.31-.31-.54-.39-.15-.08.08-.23,0-.54-.15-.15-.38.31-.77.23,0-.23-.31-.31-.46-.54.15-.08.15-.31.38-.23-.38-1.39-2-1.15-2.85-2.16.08-.46,1,.46,1-.15-.31-.31-1.23-1.54-1.54-1.31-.08.23.54.23.38.54l-.08.08c-.62-.08-1.08-.77-1.23-.69-.23.23.38.92.77,1.23-.15.46-2.23-1.23-2-2-.23,0-.15-.46-.46-.46-.23.08.15.46,0,.54-.23.08-.38-.38-.69-.62h.23c-.69-1-1.85-3.39-2.08-3.24-.31.23.54,1,.46,1.77.08.31.23-.08.38,0,.15,0,.31.69.46.77-.08.15-.54-.23-.69-.15.23.15.39.62.77.54-.08.15,0,.77-.46.46-.92-1.31-1.39-2.46-2.23-4.16-.23-.31-.23-1.46-.38-1.54-.31.08,0,.54-.15.69-.31.23-1.85-4.24-.85-4.47.38.92.85,3.08,1,2.93.23-.23,0-3.77-1.23-3.54-.46,0-.92-1.77-.77-2.23.69-2.16-1.77-4.47-.46-6.47-.08-.23-.38.08-.46,0-.23-.23,0-.62.23-.62-.08-3.7.31-5.24.62-8.16h-.15c.15.23-.23.31-.39.69-.08.15.31.31.23.62-.46,0-.08,1.85-.31,1.93-.54-.31-.46-3.62.15-3.54,0-.23.39-.46-.15-.38-.15-.31.46-.23.46-.38,0-.39-.46-.39-.46-.62,0-.62.54-1.54.08-1.77.46-1.08.62-2.62.85-3.54.15-.62.85-.77.69-1.39.62-.15.38.54.46.85-.54-.08-.77,1.46-.54,1.62.38.08.77-2,.85-2.54.62-.69-.77-1.16-.46-2.08.08-.23.31.31.38.23.08-.15-.23-.46-.15-.85.23.08.31-.15.46-.08-.08-1,.38-1.62.54-2.31-.08,0-.23,0-.15-.46.31,0,.62-.23.69-.15.15.23-.31.69-.08.85.15.08.38-.62.69-.62-.23-.31.54-1.46.38-1.54-.23-.08-.46.77-.69,1.08-.31,0-.62.23-.77,0-.08-.31.08-1,.46-1.16.15.31-.15.77-.08.85.15.15.08-.31.38-.23-.15-.15.23-1-.15-.92-.23-.23,1.23-1,.77-1.77-.15-.23.38-.77.31-.38,0,.23.08.31.31.23-.08.23-.38.46-.31.54.23.23.38-.54.77-.77,0-.08.15-.54.08-.54-.38-.15-.23.77-.62.62.23-.46-.08-.69-.08-.92.08-.23.62.08.46-.31.39-.23.31.38.62.38.23.15,0-.31.39-.23,0-.23-.23-.23-.31-.23,0-.31.46-.08.39-.31,0-.15-.62.15-.54-.15-.15-.15-.46.23-.62.15-.15-.08.23-.38.08-.54.54-.85,1.08-.85,1.31-1.54-.46-.23,1.39-1.08.46-1.16.08-.31.46-.15.39-.46.38.15.46-.15.77-.23.15-.31-.46,0-.38-.23.15-.31.15-1,.38-.92.31,0,.46,0,.46-.15,0-.08-.23-.23-.46-.15-.23-.23.54-.31.54-.54-.08-.31-.23.23-.31-.15,0-.15.23-.15.54-.31.08-.08-.23-.08-.23-.15.15-.69,1.77-2.39,2.77-3.16-.08-.77.46-1,.69-1.54.38-.38,1.46.54,2.16,1,.54.15.46-.54,1.08-.38q.08-.23-.15-.31c0-.15.08-.23.23-.23,0-.15-.23-.15-.15-.39.31-.15.46-.46.46-.92.15.08.15.23.23.38.38-.23.46-.46,1-.15.15-.23,0-.62.31-.46,0-.23-.23-.39-.23-.46.31-.15,1,.54,1.39.85.15.08.08-.46.39-.38.31.54.92-.23,1.31-.08.46.15,1.08.85,1.39.77.15.15.08-.15.08-.31.08-.15.31.08.46,0,0,.77.77.46.77,1.08.54.23,1.39.38,1.46.85.23-.23.62,0,.69.23,1.54.23,3.77,1.16,4,2,0,.31-.31.39-.46.54.46.39.85.46,1.23.92.38,0-.15-.92.31-.92,0,.15.08.31,0,.39,0,.08.23.08.23.15.23-.31.62-.38.69-.85.62-.69,3.93-1.31,5.62.08.08.23.31.15.23.46.15.23.23-.08.46.08.08.23-.08.23-.23.23.23.69,1.54,1.39,1.16,2.23.54,0,.31.92.92.54,0,.23.08.46-.31.54.92.54.92,1.62,1.16,2.54.54.23-.15,1.62.46,1.77.15.15-.08.54-.31.54.08.08.23.69.15.77.15,0,.23-.46.23-.69.38-.15.46,1.08-.15,1.08.08.62.15,0,.39,0,.15.08.31.08.31.23-.23.31.08.46-.23.77-.15.39.39.15.46.23.15.23-.08.38-.15.85,0,.15.46.15.31.62-.69-.08-.08.46-.69.46.15.23.62.15.62.46,0,1.08.62,1.46.46,2.93,0,.23-.15,0-.31,0-.15.15.31.46.31.69.15,1.46.15,3,.38,4.85.08.62.23,1.85.15,2.54-.77-.15.23,1.69.23,2.08,0,.31-.23-.15-.38.08.31.31-.15,1.31.46,1.39-.31.23.08.38.08.62-.54.85-.15,1.92-.15,3.62.08.46-.38.69-.46.92.08.23.31,0,.54-.15.23.15-.23.54-.23.69.15,1.31.31,2.39,0,2.93-.23.15-.15-.62-.38-.54v3.85c3.23,0,8.78-4,11.01-7.24.15-.31.15.08.23.08.15-.08.08-.23.23-.31-.15-.31-.08-.54.08-.62.08,0,.08.15.15.15.15,0,.38-.77.69-.92,3.47-4.93,4.7-8.7,5.08-8.47.08,0-.23.38,0,.38,1.31-2.93,1.69-5.01,2.39-7.62-.08-.31-.23-.23-.38-.46.31-.54.69-1,.38-1.39,0-.23,1.69-.23,1.92.23.08.62.23,2-.38,2.93.46.69-.23,1.08-.08,1.62-.31.08-.23-.23-.31-.31-.15.46-.08.92,0,1.54.23.31-.54.31-.31.54,0,.31-.62,3.93-1.23,3.85-.08-.15.23-1,.08-1-.31.08-.46,1.46-.62,1.69-.31.15-.23-.15-.15-.31-.23,0-.31.23-.54.15,0,.31.62.54.54.69-.23.15-.46,1.23-1.31,2.85-.08.15.31.08.23.23-.23.23-.46.23-.62,0,.23.69-1.31,2.7-1.54,3.23-.15-.23,0-.39,0-.62-.31-.08-.23,1-.62,1.62-.38.31-.15-.08-.08-.23-.77.54-1.23,2.39-2.16,2.31.08.15.23.23.08.38-.31.31-.23-.08-.39-.08.08,2-2.46,1.62-2.46,3.23-.15.15-.46-.15-.54.08-.23,1-2.39,1.62-3,2.31-.38.15-.08-.62-.46-.23-.31.38-.77.69-1.16.85-.15.23.15.38-.08.46-1.08.62-3.24,1.46-4.85,1.62.15.23.31.85-.08.77.38.15-.15.46,0,1-.31,0-.31-.23-.31-.46-.69.08.23,1.46.08,1.92-.46,2.93-1.08,4.16-2.08,6.85-.69,3.08-2.39,5.16-4,7.55-.46.85-2.16,2.62-3.7,2.93-2.08,1.31-4.39,1.92-6.78,1.92-6.24.08-12.71-2.77-16.02-6.78ZM401.02,204.48c.23-.15.46.39.85.39,0,.69.69.69.92,1.08.31.85,2,.77,2,1-.08.38-.46.31-.69.23-.15.15.31.54,0,.69-.62-.38-2.54-1.69-3.08-3.39ZM403.02,155.66c-.15-.15-.46-.23-.38-.46.23-.08.15.08.46.23l.31-.92c-.08,0-.31,0-.31-.08.23-.08.77-.69.46-.92-.38.62-1,.85-1.31,1.62.39,0,.23-.46.62-.46-.31.69-.85.69-.54,1.54.39,0,.39-.46.69-.54ZM427.89,207.72c-.15-.15,0-.54.15-.54.23,0,.08.46.31.54,2-2.16,4.16-6.93,5.24-10.86,0-.69.46-1.39.08-2.08-.08-.23.54-.08.46-.38-.15-.08-.23-1.16-.15-1.31.15-.15.15.23.31.08,0-.08.08-.23.15-.31-.31-.15-1.46-.23-1.46-.54,0-.23.31-.08.31-.15,0-.38-.77-.62-.77-.46.31.77-.92.69-1.08.46-.15-.46.46-.54.31-.77-.15-.15-1.08.31-1.39.23-5.08-1.93-6.93-6.08-7.78-11.4.31-.08,1,2.39,1.62,2.7-.15.08-.23,0-.31-.08.77,2.7,2.54,6.31,5.24,7.24.15-.15-.15-.39-.23-.46-.31-.31-.31,0-.69-.23-.92-.85-3.77-4.16-3.54-7.55-.38.15-.15-.23-.23-.46-.23.08-.23-.38-.38-.31-.08.31.23.85.08.92-.69.15-.31-1.23-.31-1.46,0-.15-.46-.08-.46-.38-.46-3.23-.85-7.08-1.31-9.55-.31.08.69,4.39.39,6.32-.31.08-.46-2.16-.77-3.08-.08-.15.31-.08.23-.31-.39-1.31-.54-4.08-.08-4.16.08.08,0,.69.23.46,0-.39.15-.92-.08-1.16-.15-.15-.23.46-.31.31-.15-.23.38-3.31.08-3.16-.31,0,.08-.69-.23-.62-.31.31-.31,1.62-.08,2.08l-.15.15c.08,1.16-.23,3.39,0,4.62-.62.08.38,1.23-.54,1.08.15-.08.08-.62,0-.85-.54-.08-.23-.92-.46-.85-.15.08-.31,1-.23,1.23.23.15.38-.23.46,0,.15.54-.38.77-.54,1.16,0,.15.31.08.46.08l.08-.15c-.08-.31.15-.38.54-.46.15.31-.08.31-.15.46.23,0,.46-.15.46.15-.15.08.15.46-.08.46-.15,0-.15.31-.31.15-.08-.15-.15-.62-.38-.54.31.62-.46.38-.46.62.15.46.54-.31.77.15-.23.08-.54.77-.69.23-.23.15.31.69-.15.85-.46-.46-.38-3.47-.31-4.78,0-.15-.15.08-.15-.08.08-1-.08-2.16-.08-3.08.08-.23.54-.62.23-.69-.46-.15-.15-1.69.08-2.62-.69-.38.08-2.31.08-3-.08,0-.38.08-.31-.08.31-.54.08-.62.38-.77-.31-.46.31-3,.46-4.54-.38.31-.69.54-.92,1-5.93,9.24-7.55,22.87-6.62,33.81-.38,1.08,1.08,4.31.69,4.54-.15,0-.15-.31-.39-.23-.31.15,1.16,5.39,3,7.16.31.38-.46.38-.23.69,1,.92,2.39,2.7,2.54,3.23.23,1.54,3.16.85,3.46,2.23,1.31.85,3,.15,5.24-1,0,1.54-2.54,1.46-2.54,1.69.08.23.77.31,1.39,0v.23c.92-.23,2.23-1.69,1.85-1.85ZM420.19,177.07c0-.38.62-.23.54-.54,0-.31.15-.62.31-.38.38-.08.23-.92.15-1.08.69-.08.62,1.46.77,2.23-.46,0-.54-.77-.77-.69-.15,0-.31.54-.31,1.08.31,0,.31.62.39.54.31-.15-.15-.77.08-.77.54-.23.38.62.54,1.16l-.15.23c-.31.08.15,1.23-.15,1.31-.92.23-.85-2.16-1.39-3.08ZM421.58,181.3c.23-.15-.15-.62.46-.77,0,.23.46,1.16.54,1.31-.15.15-.54-.15-.77-.15.31.15.15.77.69.69,0,.31-.23.31-.23.62.08.15.23-.08.38-.08s.23.77,0,1c.08.15.31-.08.31.08.08.46.46,1.77.08,1.16-.62-.85-1.85-3.62-1.46-3.85ZM434.75,185c.77-4.31-1-12.94-.23-13.25-.23-5.24-.38-8.47-1.39-12.71-.62-.85.23-2.54-.62-3.16-.31-.23-.31-.92-.69-1.46-.08-.23.08-.54,0-.85-.38-1.54-1.46-2.93-3.16-2.85-2.39,0-4.24,4-4.7,7.55,0,.23-.46.92-.23,1l.31-.08c-.39,1.08-.23,2.62-.69,3.93.15.08.23-.31.31,0,0,.31.08.69-.15.85.38,1.77.54,3.62.08,4.7.69.38-.54,1.69.39,1.62-.46,1.31.31,3.77.31,4.47-.08.46.08,1.85.15,1.85.23,0-.23-1.31.15-1.46.15.31.23.85.38,1.31.23,0,.31,1.92.15,2.16.62.77.62,1.77,1.16,2.54.08.15.15.62-.15.69-.62.46-.08,2.08.23,1.92.15-.08-.38-.62,0-.77.08,0,.15.69.39.62.23-.08-.92-1.39-.08-1.69.15.69.85,1.92.62,2.08-.31.08-.15-.23-.54-.15-.08.08.38.85.69.77.31-.23.85.69.77.85s-.23-.15-.38-.15c1.46,2.23,4,3.85,6.78,3.85-.15-.54.54-3.62.15-4.16ZM428.89,188.62c.08-.15.31.31.46.08-1-.85-2.16-3-2.46-2.85-.15.15.85,1.39,1.39,2.08-.15.08-.23-.08-.38,0-.15.31,2.08,2.16,2.16,2-.31-.54-1.23-1.08-1.16-1.31Z"/>
    <path class="st2" d="M468.25,208.57c-.15.85.15.54.08.92.39.31.23-.15.54-.23.15.31.92,1.85,1.23,1.69.31-.54-1.31-1.92-1.54-3.46-.46-.08-.08.46-.69.38-.46-1,.77-1.16.69-1.54-.08-.23-.46.23-.77,0-.38-.54-1-2.23-.54-2.31.39.31.54,1,.62,1.39.15.38.15.46.54.23-1.46-4.85-3.39-10.32-5.08-15.17-.69.46.85,2,.54,3.85.23.31.23-.23.54.08.77,2.85,1.85,5.08,2,7.39.38-.15.85.77.46.92-.54.23-2.23-6.39-2.7-6.24-.54.23.62,1.77.85,2.85-.39.23-.77-.46-.85,0,.31.31.69,1.85,1.16,2.54.23.23.31-.46.54-.08.38.92-.08,1.85.77,2.16-.39.92,1.08,2.77.46,3.85-.92-.85-2-2.16-1.77-2.54.23-.15.54.62.54.08-.08-.62-.54-.46-.85-.62-.23-.15-.62-1.23-.54-1.46.15-.15.23.46.46.38-.31-2.62-1.77-5.08-2.31-7.86-.54,0,.15.77-.46.69-.08-.62-.31-1.08-.54-1.93.15-.31.46.39.46,0-1.31-3.39-1.77-6.85-2.77-10.17-.46.23.31,1.23-.23,1.46-.23-.77-.62-2-.54-2.93,0-.31.54-.77.39-1-.23-.31-.39.46-.62.08.15-.46-.31-1.08-.23-1.39.31-.31.62.46.69,0,.15-.62-.85-.69-.85-1.16,0-.92-.69-1.31-.46-1.85.08-.23.31.31.46.08.08-.31-.38-1.85-.46-2.54-.23-.31-.46.46-.54.15-.23-1,.15-2.85,0-4.31-1.08-.54-1.85-3.62-1.39-3.77.23-.08.31.77.46.62.15-.31-.46-5.16-1-7.7-.15-.31-.38.08-.46-.23-.31-.92-.08-2.54-.92-3.23-.23-.15.31-.23.31-.69,0-.23-.46.15-.46-.08.54-3-.54-6.93-.31-8.93.08-.62.46-.92.62-1.46,1,.77,1.85.31,2,1.46.39-.54,1.08.46,1.54,0,0-.92.92,0,1.23-.62.31.77.85.39,1.23.92-.15.38.62-.08.69.46.31.23.62-.69.85-.46v.38c.39.08,0-.77.39-.69.08.15.08.54.23.69.15-.31-.08-.85.31-.92.62.23.38,1.23,1.08,1.54.08-.46.08-1.08.62-1.23.15.39.69.77,1,.92l.08.23c.46-.23.62.46.77.15-.23-.31.15-.23.31-.15.85.69,2.23,1.54,1.69,2.54.85.31.92,1.69,1.16,1.69.31,0,.39-1,.69-.85.54.62.77,2,.69,3.54.38-.23.38.15.69.23.54-2.08,1.92.69,1.69,1.69.08.31.62-.31.62.08-.23,2.46-.85,3.7-.31,5.78-.38,6.93,3,14.17,3.23,22.41,1.92.54.15,3.77.38,5.31.39.38.85-1.16,1.16-1.16.38,0,.38,1.08.31,1.62.92.46.69,2.46.85,3.46,0,.46-.77-.62-1-.38-.23.31.15,2.7.54,2.7.31-.15-.15-1.39.15-1.46.23,0,.31.92.69.62-.08,2.23.69,4.54,1.16,6.78,1.46-3.46,2-7.01,3.62-10.17.08-.38-.31-.54-.15-.77.85-.08.15-1.77.62-2.54,3.93-8.09,5.01-18.64,9.16-27.26.23-4.16,2.93-8.78,2.39-13.79.38-.23.23.38.46.38.15-2.54-.62-4.7-.46-7.01.38-.85,1.62,0,2.39,0,.39,2,1.62,3.77,1.46,6.16,0,.38.08,1.16-.23,1.16-.31-.23-.08-1.54-.54-1.54.62,5.39-1.69,16.33-2.08,16.33-.23,0-.15-.77-.46-.46-.31,1.46-.31,3.16-.85,4.31-.15.31-.46-.08-.85.23-.15.23.46.92.77.54.31-.31,0,1.62-.15,1.69-.23.15-.39-.23-.54-.08-.08.23.38.54.31.85-2.31,4.62-3.54,10.7-4.77,14.94-.15.39-.62.54-.38,1.23,0,.15-.39.08-.54.23-.08.15.62.23.23.62-.23.15-.15-.23-.31-.08-.08.31.46.31.23.85-1.23.39,0,3.85-1.54,4.47-1.46,7.16-2.77,15.4-8.09,20.1-1.31,1.23-3.08,1.77-4.77,1.77-3.77,0-9.09-4.77-7.16-6.39ZM456.16,154.58c.38-1.15.15-2-.46-3.08-.15-.15-.46.15-.54-.15.62-.46-.15-1-.54-.62.08-.23.23-.62.62-.54-.46-.77.08-2.23-.38-2.08,0,.62-1.23,1.31-.62,1.46-.08-.15.23-.46.39-.23,0,.38-.46.69-.23,1-.08.23-.31.15-.31.46.31.23.08.46.31.46.54-.15.38.23.38.46-.08.38.39.38.54.23,0,.15,0,.23.15.31.08.23-.31.31-.46.08-.23.15.08.77,0,.92.46.54-.08,1.16.15,1.39.38.23.46-.31,1-.08ZM457,155.35c-.38.08-.08.85-.77.92-.15-.15.15-.54-.15-.62-.38.31-.15.62-.15,1.08.62.23.85,0,.92.62-.46.39.31.08.31.31-.08.15.38.77.08.77-.39,0,.15,1.39.54,1.39.54-.23-.15-4.47-.77-4.47Z"/>
    <path class="st2" d="M502.44,172.99c-.46,0-1.08,2-1,3.16-.62-.08,0,1-.54,1.08-.31-1.77.31-3.93,1.16-5.24,0-.31-.38,0-.46-.15.08-.31.38-1.31.62-1.31.38.15-.23.77.08,1,.38-.31.38-1.31.54-1.69-.39-.15-.31.31-.69.23.15-.69.15-1.31.69-2.16.31.08.08.38,0,.62.31,0,.69-1.39.92-1.16.15.31-.69,1.93-.38,2,1.16-1.23,1.54-5.62,1.23-5.85-.23,0-.46,1.31-.92,1.08.92-3.62,4.7-9.93,9.4-13.01.23.08-.08.46-.08.62.46.15.92-1.39,1.62-2.08,1-.92,3.47-1.39,5.39-2.31.31-.08.15.38.39.31,0-.54.62-.15,1-.85.15.15.54.08.69.31.54-.92,2.31-1.23,3.23-1.08,2.7.54,5.85.69,8.01,2.39,4.54,1.46,5.93,4.62,5.93,8.16,0,6.47-3.93,13.01-6.31,16.56-3.77,5.08-7.39,9.78-12.01,13.71.15,3,.54,6.01,2.16,9.24,2.46-.38,1.85,9.4,8.55,9.4,7.86,0,12.4-10.47,15.17-17.33,1.93,0,.69,10.63-4.77,16.79-.23.54-2.31,1.46-2.31,2.08.23.31.92-.77,1.23-.46.38.38-7.24,7.08-10.55,5.7-.38.31-.77,1.08-1.23.62-1.93.69-4.16,1.23-6.47,1.23-16.71,0-24.8-22.64-20.25-41.59ZM513.68,209.72c.08-.31,2.23,1.16,2.46.54,0-.31-2.77-1.23-3.85-2.31,0-.15.62.15.69-.08.15-.38-5.24-4.93-3.54-5.54.92.62,2.54,4.08,3.08,3.85.31-.31-1.93-2.93-1.62-3.23.23.23,1.08.54.77,1,.69-.08.85,1.08,1.15.69-3.7-6.39-6.39-5.62-9.09-23.87-1.39.23.23,4.24-.62,4.62-1.62.77,2.7,17.33,8.39,23.1.31-.15-.23-.54,0-.62.31-.15,1.62,2.46,2.16,2.39.15-.23,0-.39,0-.54ZM534.86,157.82c0-1.46-.15-3-.62-4.54-.46-.08-.23.46-.38.62-1.39.38-3,.23-3.62,1.31-.23-.15-.54.23-.85.15.15.69-.85.92-.69,1.62-5.54,2.93-7.08,13.32-8.32,18.33.85,1.54.38,4.31.38,6.16,6.16-5.93,14.09-16.63,14.09-23.64Z"/>
  </g>
  <g>
    <g id="_x38_3">
      <path class="st1" d="M187.8,130.65l.33.33c0,.33.33.67.33.67.33.33.67,1,1,1.34,1,.67,2,1.34,3.01,1.67s2.34.33,3.68,0c.67,0,1.34-.33,1.67-.67,1.67,0,9.02-3.01,8.35-3.01,4.34-1.67,9.02-1.34,12.7,1l6.68,4.34,6.68,4.34c2.34,1.34,4.68,3.01,7.35,4.34,10.69,5.01,23.05,5.01,33.74.67,2.67-1,5.35-2.34,7.68-4.01s4.34-3.34,6.68-5.01l12.36-10.36c.33-.33,25.39-21.05,25.06-20.71,1-1,2-2.34,2.67-3.68s1.34-3.01,1.34-4.68-1-3.68-2-4.68c-2.34-2-5.01-3.01-8.35-2.67,7.02-7.68,12.7-16.37,16.37-26.06,4.01-11.36,4.34-24.39.33-36.08-2-5.68-5.35-11.36-9.36-16.04-4.34-4.68-9.69-8.35-16.04-10.36-6.35-2-13.03-1.67-19.38.33-5.01,1.67-9.36,4.68-13.36,8.35-3.68-3.68-8.02-6.35-13.03-8.02-6.01-2-12.7-2.34-19.04-.67-6.35,1.67-11.69,5.35-16.04,10.02-11.69,12.7-16.37,32.74-10.02,51.45,2.34,7.35,6.01,13.7,10.36,19.71-.33-.33-.67-.33-1.34-.67-11.36-4.34-23.39-3.34-33.74,2.34l-14.03,8.02-3.34,2c-2,1-3.34,3.34-3.68,5.68,0,1,0,2.34.33,3.34,0,.33.33.67.33.67l.67.33c0,.33,2.34,5.01,2.34,4.68,0,0,11.36,23.05,10.69,21.72h0ZM225.56,28.74c2-5.01,5.01-9.69,8.69-13.7,3.68-3.68,8.35-6.68,13.36-8.02s10.36-1.34,15.03.67c5.01,1.67,9.02,5.01,12.7,9.02,1.34,1.67,3.68,1.34,5.01,0,8.02-9.36,19.04-12.36,28.07-9.36,10.02,3.01,18.04,12.03,21.72,22.05,4.01,10.36,4.01,22.05.67,32.74-3.34,10.69-9.69,20.38-17.37,29.07-.67.33-1.34,1-2,1.34l-1.34,1.67c-1.34,1-2.67,2-4.01,2.67-2.67,1.67-5.68,3.34-8.35,4.68-5.35,2.34-11.03,4.34-16.71,5.35-1-2-2.67-3.68-4.68-4.01-.67,0-1.34-.33-1.67-.33-1.34-.33-2,0-3.34-.33-2-.33-4.01-.67-6.01-1-8.02-2.34-15.7-5.35-21.72-10.69l-.33-.33c-.33-.33-5.01-3.34-4.68-3.34-6.35-7.68-11.36-16.71-14.37-26.06-3.01-10.36-2.34-22.05,1.34-32.07h0ZM180.79,99.57l3.34-2,14.03-8.35c4.34-2.67,9.02-4.01,14.03-4.68,5.01-.33,10.02.33,14.7,2,2.34,1,4.68,2,6.68,3.34l6.68,4.34h-.33c7.02,6.01,15.37,9.02,24.06,11.03,2.34.33,4.34.67,6.68,1h4.34c.33,0,.67.33,1,.33,1.34.67,2,2,1.34,3.34-.33,1.34-1.67,2.67-3.34,3.68-7.35,3.01-16.04,4.68-24.06,2.67-4.01-1.34-7.68-3.34-11.36-5.35s-7.35-4.34-10.69-6.68c3.34,2.67,6.68,5.35,10.36,7.68,3.68,2.34,7.35,4.68,11.36,6.01,8.69,2.34,17.37,1.34,26.06-1.67,2-1,4.34-2.67,5.35-5.35.33-1.34.33-3.01,0-4.34h.33c.67,0,1,0,1.67-.33,5.01-.67,10.36-2,15.03-3.68,3.01-1.34,6.01-2.67,9.02-4.34,1.34-.67,3.01-1.67,4.34-2.67l2-1.34,2-1h.33l.33-.33c3.34-1.34,7.02-.67,9.36,1.67.67.67,1,1.67,1,2.34,0,1.67-1.67,4.01-3.01,5.35l-25.73,19.38-12.7,9.69c-2,1.67-4.34,3.34-6.35,4.68s-4.34,2.67-6.68,3.34c-9.36,3.68-20.05,3.34-29.07-1-4.34-2-9.02-5.35-13.36-8.35l-7.02-4.34c-5.35-3.34-12.36-3.68-18.38-1.34-.33,0-9.02,3.68-8.35,3.68h-.67s-.33,0-.33-.33v-.33l-.33-.33c-.33-.33-13.03-25.73-12.7-25.39l-.33-1-1,.33v-.67s0-.33.33-.67h0Z"/>
    </g>
    <g>
      <g>
        <path class="st0" d="M259.97,57.05l-16.83,11.86c-.19.74-.4,1.45-.64,2.1,3.05-2.18,16.9-12.09,18.87-13.49-.44-.25-.91-.41-1.39-.46Z"/>
        <path class="st0" d="M262.26,54.89c-1.17-.55-2.74-.82-4.43-.77-.19,0-.38,0-.57,0-3.99,0-5.93-1.3-6.74-2.1-.31-.31-.72-.49-1.16-.51l-1.91-.11c-.18-.01-.35,0-.52.05.09.31.23.62.35.84.03.06,0,.14-.05.17-.06.03-.14,0-.17-.05-.19-.35-.42-.88-.46-1.37-.07-.86.9-1.9.21-4.16-.66-2.17-5.17-2.58-4.83,2.38.05.13.21.41.42.43.17.02.38-.16.6-.51-.06-.93.17-2.25.97-2.73.47-.3,1.09-.34,1.84-.11.07.02.11.09.09.16s-.09.11-.16.09c-.54-.16-.99-.18-1.36-.05.38.16,1.04.51,1.38,1.21.32.65.29,1.45-.11,2.36-.47,1.1-.17,2.31.66,3.03.05.05.06.13.01.18-.05.05-.13.06-.18.01-.33-.28-.58-.63-.75-1.02l-.92.57c-.52.32-.83.88-.85,1.48-.05,1.83-.56,5.39-3.49,8.78-1.5,1.74-2.84,3.95-3.68,6.07-1.14,2.9-1.51,6.18,1.59,5.76,4.74-.66,4.9-7.24,6.51-13.7.56-2.25,2.01-3.88,4.31-4.83,0,0,0,0,0,0,2.93-1.22,6.26-.88,6.29-.88.07,0,.12.07.11.14,0,.07-.07.12-.14.11-.03,0-2.67-.27-5.29.54,2.92-.06,5.33,1.3,7.95,1.91l1.77-1.25c-.64,0-1.06.19-1.06.19-.06.03-.14,0-.17-.06-.03-.06,0-.14.06-.17.03-.01.65-.29,1.57-.2.84.09,1.63.47,2.27,1.02.09.08.04.23-.08.23-.1,0-.1-.08-.54-.37l-1.26.9c.44-.01.86-.06,1.29-.14,1.55-.3,2.42-.96,2.34-1.76-.07-.63-.71-1.28-1.71-1.76h0ZM248.45,52.77l-1.51,1.02c-.53.36-1.2.45-1.81.25-.07-.02-.1-.1-.08-.16.02-.07.1-.1.16-.08.53.18,1.12.09,1.58-.22l1.51-1.02c.06-.04.14-.02.18.03.04.06.02.14-.03.18h0Z"/>
      </g>
      <g>
        <path class="st1" d="M287.75,50.58l-28.06,19.77c-.32,1.24-.67,2.41-1.07,3.49,5.08-3.63,28.18-20.16,31.45-22.49-.74-.42-1.51-.68-2.31-.77Z"/>
        <path class="st1" d="M291.56,46.99c-1.94-.91-4.56-1.37-7.38-1.29-.32,0-.64.01-.95.01-6.65,0-9.88-2.17-11.24-3.5-.52-.51-1.2-.81-1.93-.85l-3.18-.18c-.3-.02-.59,0-.87.08.15.52.38,1.03.59,1.41.06.1.02.23-.09.29-.1.06-.23.02-.29-.09-.31-.59-.7-1.46-.77-2.29-.12-1.43,1.5-3.16.34-6.94-1.11-3.63-8.62-4.29-8.06,3.97.09.21.35.69.69.72.29.03.64-.27,1.01-.85-.1-1.56.28-3.75,1.61-4.56.78-.5,1.81-.57,3.06-.19.11.03.18.15.14.27s-.15.18-.27.14c-.89-.27-1.65-.3-2.26-.08.64.26,1.73.86,2.31,2.02.54,1.09.48,2.41-.18,3.93-.79,1.83-.29,3.85,1.11,5.04.09.08.1.21.02.3-.08.09-.21.1-.3.02-.55-.47-.97-1.06-1.25-1.7l-1.53.95c-.86.54-1.39,1.46-1.41,2.47-.08,3.04-.94,8.99-5.81,14.63-2.5,2.89-4.74,6.58-6.13,10.12-1.91,4.83-2.51,10.31,2.65,9.59,7.9-1.09,8.17-12.07,10.86-22.83.93-3.75,3.35-6.46,7.18-8.05,0,0,0,0,0,0,4.89-2.03,10.44-1.47,10.49-1.47.12.01.2.12.19.24-.01.12-.12.2-.24.19-.05,0-4.45-.45-8.81.91,4.86-.11,8.89,2.17,13.25,3.19l2.95-2.08c-1.06,0-1.76.32-1.77.32-.11.05-.23,0-.28-.11-.05-.11,0-.23.11-.28.04-.02,1.09-.49,2.61-.33,1.4.14,2.71.79,3.78,1.7.15.13.06.38-.14.38-.16,0-.16-.13-.9-.62l-2.09,1.5c.73-.02,1.44-.1,2.16-.24,2.59-.49,4.04-1.59,3.89-2.94-.11-1.04-1.18-2.14-2.86-2.93h0ZM268.54,43.46l-2.51,1.71c-.88.6-2,.75-3.02.42-.11-.04-.17-.16-.14-.27.04-.11.16-.17.27-.14.88.29,1.87.16,2.64-.36l2.51-1.71c.1-.07.23-.04.3.06.07.1.04.23-.06.3h0Z"/>
      </g>
      <g>
        <path class="st2" d="M319.98,48.69l-38.26,26.96c-.44,1.69-.91,3.29-1.47,4.76,6.92-4.95,38.42-27.48,42.88-30.67-1.01-.57-2.06-.93-3.15-1.05Z"/>
        <path class="st2" d="M325.18,43.79c-2.65-1.25-6.22-1.87-10.06-1.76-.44.01-.87.02-1.29.02-9.06,0-13.48-2.95-15.33-4.77-.71-.69-1.64-1.11-2.63-1.16l-4.33-.25c-.4-.02-.8.01-1.19.11.2.71.52,1.4.8,1.92.08.14.02.32-.12.4-.14.08-.32.02-.4-.12-.43-.8-.96-2-1.05-3.12-.16-1.95,2.04-4.31.47-9.46-1.51-4.94-11.75-5.85-10.99,5.41.12.29.48.94.94.98.4.04.87-.36,1.37-1.16-.13-2.12.38-5.12,2.2-6.21,1.06-.69,2.47-.78,4.17-.26.15.05.24.21.19.37s-.21.24-.37.19c-1.22-.37-2.25-.41-3.09-.11.87.36,2.37,1.17,3.14,2.75.73,1.49.65,3.29-.24,5.35-1.08,2.49-.39,5.25,1.51,6.88.12.11.14.29.03.41-.1.12-.29.14-.41.03-.76-.65-1.33-1.44-1.7-2.32l-2.08,1.3c-1.17.73-1.89,1.99-1.93,3.37-.11,4.15-1.28,12.26-7.93,19.95-3.41,3.95-6.46,8.98-8.36,13.81-2.6,6.59-3.43,14.06,3.61,13.08,10.78-1.49,11.15-16.45,14.81-31.14,1.27-5.12,4.57-8.81,9.79-10.98,0,0,0,0,0,0,6.67-2.77,14.23-2.01,14.31-2,.16.02.28.16.26.32-.02.16-.16.28-.32.26-.07,0-6.07-.61-12.02,1.24,6.63-.15,12.12,2.96,18.07,4.35l4.02-2.84c-1.45.01-2.41.43-2.42.44-.15.07-.32,0-.39-.15-.07-.15,0-.32.15-.39.06-.03,1.48-.66,3.56-.45,1.92.2,3.7,1.07,5.16,2.31.21.18.08.52-.19.52-.22,0-.22-.18-1.23-.85l-2.86,2.04c.99-.03,1.96-.14,2.94-.32,3.53-.67,5.51-2.17,5.31-4.01-.16-1.42-1.61-2.91-3.9-3.99h0ZM293.78,38.97l-3.43,2.33c-1.2.81-2.73,1.03-4.11.57-.15-.05-.24-.22-.19-.37.05-.15.22-.24.37-.19,1.2.4,2.55.22,3.6-.5l3.43-2.33c.13-.09.32-.06.41.08.09.13.06.32-.08.41h0Z"/>
      </g>
    </g>
  </g>
</svg>